<?xml version="1.0" encoding="UTF-8"?><svg xmlns="http://www.w3.org/2000/svg" viewBox="0 0 53.12 61.45"><defs><style>.d {
  fill: none;
}

.e {
  stroke: #ed2224;
  stroke-miterlimit: 10;
}

.e, .f {
  fill: #010101;
}

</style></defs><g id="a"></g><g id="b"><g id="c"><g><path class="d" d="M17.24,24.51c-.3-.5-.67-.95-1.11-1.36-.48-.41-1.04-.76-1.68-1.03-.64-.27-1.4-.41-2.25-.41-.99,0-1.9,.26-2.74,.77-.83,.51-1.57,1.25-2.22,2.21-.61,.93-1.09,2.11-1.45,3.54-.04,.14-.06,.3-.09,.45h12.19v-2.77c-.13-.43-.35-.89-.64-1.39Z"></path><path class="f" d="M22.54,6.92V28.66h-4.66v-2.77c-.13-.43-.35-.89-.64-1.39s-.67-.95-1.11-1.36c-.48-.41-1.04-.76-1.68-1.03-.64-.27-1.4-.41-2.25-.41-.99,0-1.9,.26-2.74,.77-.83,.51-1.57,1.25-2.22,2.21-.61,.93-1.09,2.11-1.45,3.54-.04,.14-.06,.3-.09,.45H.64c.1-.35,.21-.69,.34-1.03,.61-1.59,1.45-2.98,2.53-4.17,1.01-1.11,2.24-1.99,3.7-2.65,1.46-.66,2.95-.99,4.47-.99,1.14,0,2.26,.15,3.36,.43,1.1,.29,2.04,.66,2.84,1.1V12.83c0-.7-.12-1.33-.35-1.9-.23-.57-.21-1.32-.97-1.31L22.54,0"></path><path class="e" d="M23.86,42.4c-.43-.28-.76-.62-.98-1.03-.22-.4-.33-.9-.33-1.48v-2.76H.66c.08,.29,.16,.57,.26,.85,.57,1.6,1.34,2.98,2.32,4.12,.96,1.13,2.08,2,3.38,2.62,1.3,.62,2.64,.93,4.03,.93s2.64-.31,3.9-.92c1.26-.61,2.32-1.4,3.18-2.36l.2,.05v2.28l.37,.35,8.56-.55v-1.64c-.5-.02-1.04-.05-1.64-.1s-1.05-.17-1.36-.37Z"></path><path class="d" d="M44.08,23.52c-.91-.6-2-.89-3.28-.89s-2.27,.27-3.13,.81c-.86,.54-1.6,1.18-2.23,1.92v3.36h11.97c-.26-1.08-.64-2.04-1.13-2.86-.56-.96-1.3-1.74-2.21-2.33Z"></path><path class="f" d="M35.45,25.35c.63-.74,1.37-1.39,2.23-1.92,.86-.54,1.9-.81,3.13-.81s2.37,.3,3.28,.89,1.65,1.37,2.21,2.33c.49,.83,.86,1.79,1.13,2.86h5.25c-.1-.43-.22-.84-.36-1.24-.54-1.53-1.29-2.87-2.27-4.03-.91-1.09-2-1.96-3.26-2.61s-2.66-.97-4.18-.97c-1.26,0-2.52,.33-3.8,.99-1.27,.66-2.34,1.49-3.2,2.48l-.2-.05v-2.75l-.35-.3-8.34,.55v1.64c.5,.03,1.01,.1,1.54,.21,.53,.11,.94,.26,1.24,.46,.4,.28,.72,.65,.97,1.12,.25,.46,.37,.94,.37,1.44v3.06h4.62v-3.36Z"></path><path class="e" d="M35.45,51.35v-7.36h.2c.6,.45,1.36,.84,2.31,1.17s2.15,.5,3.62,.5,2.96-.31,4.32-.92,2.59-1.49,3.7-2.63c1.06-1.12,1.91-2.49,2.56-4.08,.11-.27,.2-.56,.29-.84H30.83v24.17c1.4-6.9,2.9-11.2,4.62-10Z"></path></g></g></g></svg>