<?xml version="1.0" encoding="UTF-8"?><svg xmlns="http://www.w3.org/2000/svg" viewBox="0 0 231.92 37.42"><defs><style>.d{fill:#fff;}.e{fill:none;}.f{stroke:#ed2224;stroke-miterlimit:10;}.f,.g{fill:#010101;}</style></defs><g id="a"/><g id="b"><g id="c"><g><path class="e" d="M205.48,15.03c-.18-.3-.41-.58-.68-.83-.29-.25-.63-.46-1.02-.62-.39-.17-.85-.25-1.37-.25-.6,0-1.15,.16-1.66,.47-.51,.31-.95,.76-1.34,1.34-.37,.56-.66,1.28-.88,2.14-.02,.09-.04,.18-.06,.27h7.39v-1.68c-.08-.26-.21-.54-.39-.84Z"/><path class="e" d="M52.62,14.82c-.48-.57-1.07-.85-1.79-.85-.49,0-.95,.08-1.39,.23-.43,.16-.83,.37-1.19,.64-.29,.22-.54,.47-.74,.74-.2,.28-.35,.48-.45,.62v1.33h6.27v-.31c0-1.04-.24-1.85-.72-2.41Z"/><path class="e" d="M10.7,15.03c-.18-.3-.41-.58-.68-.83-.29-.25-.63-.46-1.02-.62-.39-.17-.85-.25-1.37-.25-.6,0-1.15,.16-1.66,.47-.51,.31-.95,.76-1.34,1.34-.37,.56-.66,1.28-.88,2.14-.02,.09-.04,.18-.06,.27h7.39v-1.68c-.08-.26-.21-.54-.39-.84Z"/><path class="e" d="M139.86,14.39c-.55-.36-1.21-.54-1.98-.54s-1.37,.16-1.89,.49c-.52,.33-.97,.71-1.35,1.17v2.04h7.25c-.16-.65-.39-1.24-.68-1.74-.34-.58-.79-1.05-1.34-1.41Z"/><path class="e" d="M31.85,14.87c-.23-.46-.55-.83-.95-1.12-.4-.29-.92-.43-1.55-.43-1.05,0-1.93,.44-2.62,1.31-.58,.73-.94,1.71-1.08,2.92h6.77c-.02-.34-.06-.7-.11-1.07-.1-.64-.25-1.17-.46-1.6Z"/><path class="e" d="M182.92,14.83c-.5-.57-1.1-.86-1.82-.86-.53,0-1.02,.08-1.46,.25s-.83,.37-1.18,.61c-.33,.23-.6,.48-.79,.74-.2,.27-.34,.48-.43,.64v1.33h6.42v-.28c0-1.05-.25-1.86-.75-2.44Z"/><path class="e" d="M84.29,15.37c-.32-.62-.74-1.12-1.27-1.5s-1.16-.56-1.91-.56-1.43,.19-1.98,.57c-.55,.38-.99,.9-1.33,1.56-.32,.61-.55,1.31-.68,2.09h7.85v-.04c-.16-.84-.38-1.55-.68-2.13Z"/><path class="e" d="M61.69,14.82c-.48-.57-1.07-.85-1.78-.85-.49,0-.95,.08-1.38,.23s-.83,.36-1.19,.63c-.29,.22-.53,.46-.73,.71s-.34,.47-.44,.64v1.36h6.24v-.31c0-1.04-.24-1.85-.71-2.41Z"/><path class="e" d="M105.72,14.83c-.5-.57-1.1-.86-1.82-.86-.53,0-1.02,.08-1.46,.25s-.83,.37-1.18,.61c-.33,.23-.6,.48-.79,.74-.2,.27-.34,.48-.43,.64v1.33h6.42v-.28c0-1.05-.25-1.86-.75-2.44Z"/><path class="g" d="M13.92,4.37v13.18h-2.83v-1.68c-.08-.26-.21-.54-.39-.84s-.41-.58-.68-.83c-.29-.25-.63-.46-1.02-.62-.39-.17-.85-.25-1.37-.25-.6,0-1.15,.16-1.66,.47-.51,.31-.95,.76-1.34,1.34-.37,.56-.66,1.28-.88,2.14-.02,.09-.04,.18-.06,.27H.65c.06-.21,.13-.42,.21-.62,.37-.96,.88-1.8,1.53-2.53,.61-.67,1.36-1.21,2.24-1.61,.89-.4,1.79-.6,2.71-.6,.69,0,1.37,.09,2.03,.26,.67,.18,1.24,.4,1.72,.67V7.95c0-.42-.07-.81-.21-1.15-.14-.35-.13-.8-.59-.79L13.92,.17"/><path class="g" d="M26.73,14.62c.7-.87,1.57-1.31,2.62-1.31,.63,0,1.15,.14,1.55,.43,.4,.29,.72,.66,.95,1.12,.21,.43,.36,.96,.46,1.6,.06,.37,.09,.72,.11,1.07h2.94c-.05-.52-.14-1.01-.28-1.48-.23-.76-.57-1.42-1.03-1.98-.48-.59-1.11-1.06-1.88-1.4-.77-.34-1.7-.51-2.78-.51s-2,.22-2.85,.65-1.56,1.01-2.13,1.72c-.59,.74-1.04,1.58-1.35,2.5-.05,.16-.1,.33-.14,.5h2.73c.14-1.21,.49-2.19,1.08-2.92Z"/><path class="g" d="M47.07,16.21c.1-.14,.25-.35,.45-.62,.2-.28,.45-.52,.74-.74,.36-.27,.76-.48,1.19-.64,.43-.16,.89-.23,1.39-.23,.71,0,1.31,.28,1.79,.85,.48,.57,.72,1.37,.72,2.41v.31h2.83v-1.36c.1-.17,.25-.38,.44-.64s.44-.49,.73-.71c.36-.27,.76-.48,1.19-.63s.89-.23,1.38-.23c.71,0,1.31,.28,1.78,.85,.48,.57,.71,1.37,.71,2.41v.31h2.83v-.34c0-1.7-.37-2.97-1.1-3.79-.73-.82-1.72-1.23-2.97-1.23-.63,0-1.2,.08-1.72,.24-.52,.16-.96,.37-1.34,.63-.45,.3-.81,.58-1.09,.85-.28,.27-.59,.57-.95,.92-.3-.73-.8-1.36-1.49-1.87-.69-.52-1.52-.77-2.48-.77-.61,0-1.18,.08-1.71,.24-.53,.16-.96,.36-1.32,.6-.31,.21-.65,.49-1.01,.83-.36,.34-.67,.64-.92,.89h-.11v-2.12l-.21-.21-4.96,.33v.99c.3,.02,.59,.07,.87,.14s.52,.17,.71,.29c.26,.18,.46,.4,.61,.65,.15,.26,.22,.54,.22,.86v1.86h2.8v-1.33Z"/><path class="g" d="M77.12,17.54c.13-.78,.36-1.48,.68-2.09,.34-.66,.79-1.18,1.33-1.56,.55-.38,1.21-.57,1.98-.57s1.39,.19,1.91,.56,.94,.87,1.27,1.5c.3,.58,.53,1.29,.68,2.13v.04h3.08c-.31-1.28-.89-2.38-1.76-3.28-1.35-1.4-3.06-2.1-5.14-2.1-2.19,0-3.96,.74-5.31,2.21-.82,.9-1.39,1.95-1.71,3.16h3Z"/><path class="g" d="M100.04,16.21c.09-.16,.23-.37,.43-.64,.2-.27,.46-.51,.79-.74,.34-.24,.73-.44,1.18-.61s.93-.25,1.46-.25c.71,0,1.32,.29,1.82,.86,.5,.57,.75,1.38,.75,2.44v.28h2.83v-.49c0-1.47-.34-2.65-1.03-3.54s-1.74-1.33-3.16-1.33c-.64,0-1.22,.08-1.73,.24-.51,.16-.95,.36-1.32,.6-.32,.21-.66,.48-1.02,.82-.36,.34-.66,.62-.9,.86h-.08v-2.09l-.21-.21-4.93,.33v.99c.3,.02,.58,.06,.84,.11s.49,.14,.68,.26c.26,.18,.46,.41,.61,.7,.15,.29,.22,.6,.22,.94v1.8h2.8v-1.33Z"/><path class="g" d="M134.63,15.51c.38-.45,.83-.84,1.35-1.17,.52-.33,1.15-.49,1.89-.49s1.43,.18,1.98,.54,1,.83,1.34,1.41c.3,.5,.52,1.08,.68,1.74h3.18c-.06-.26-.14-.51-.22-.75-.33-.93-.78-1.74-1.38-2.44-.55-.66-1.21-1.19-1.98-1.58s-1.61-.59-2.53-.59c-.76,0-1.53,.2-2.3,.6-.77,.4-1.42,.9-1.94,1.5l-.12-.03v-1.67l-.21-.18-5.05,.33v.99c.3,.02,.61,.06,.93,.13,.32,.07,.57,.16,.75,.28,.24,.17,.44,.4,.59,.68,.15,.28,.23,.57,.23,.87v1.86h2.8v-2.04Z"/><path class="g" d="M163.72,17.06c0-1-.13-1.82-.4-2.46-.27-.64-.65-1.14-1.17-1.51-.51-.38-1.08-.63-1.71-.74-.63-.12-1.36-.17-2.2-.17-.61,0-1.24,.1-1.88,.29s-1.19,.43-1.64,.71c-.52,.33-.94,.71-1.27,1.13s-.49,.86-.49,1.32,.12,.84,.35,1.2c.24,.36,.6,.53,1.11,.53,.56,0,1-.15,1.32-.44,.32-.29,.47-.61,.47-.96,0-.33-.05-.69-.14-1.08s-.14-.69-.14-.89c.16-.17,.44-.33,.83-.49,.4-.16,.82-.23,1.29-.23,.67,0,1.19,.14,1.56,.41,.37,.28,.65,.6,.85,.97,.18,.33,.3,.68,.35,1.05,.06,.37,.08,.62,.08,.75v1.09h2.83c0-.16,0-.32,0-.49Z"/><path class="g" d="M177.24,16.21c.09-.16,.23-.37,.43-.64,.2-.27,.46-.51,.79-.74,.34-.24,.73-.44,1.18-.61s.93-.25,1.46-.25c.71,0,1.32,.29,1.82,.86,.5,.57,.75,1.38,.75,2.44v.28h2.83v-.49c0-1.47-.34-2.65-1.03-3.54s-1.74-1.33-3.16-1.33c-.64,0-1.22,.08-1.73,.24-.51,.16-.95,.36-1.32,.6-.32,.21-.66,.48-1.02,.82-.36,.34-.66,.62-.9,.86h-.08v-2.09l-.21-.21-4.93,.33v.99c.3,.02,.58,.06,.84,.11s.49,.14,.68,.26c.26,.18,.46,.41,.61,.7,.15,.29,.22,.6,.22,.94v1.8h2.8v-1.33Z"/><path class="f" d="M134.63,31.26v-4.46h.12c.36,.27,.83,.51,1.4,.71s1.3,.3,2.2,.3,1.79-.19,2.62-.56,1.57-.9,2.24-1.59c.64-.68,1.16-1.51,1.55-2.47,.07-.16,.12-.34,.17-.51h-13.09v14.64c.85-4.18,1.76-6.79,2.8-6.06Z"/><path class="f" d="M77.21,22.68h-3.03c.07,.22,.13,.43,.22,.64,.39,.97,.91,1.79,1.56,2.46,.66,.68,1.42,1.2,2.27,1.56s1.75,.53,2.69,.53c1.13,0,2.16-.2,3.07-.59s1.72-.99,2.41-1.79c.61-.7,1.08-1.56,1.41-2.56,.03-.08,.05-.17,.07-.25h-10.68Z"/><path class="f" d="M14.72,25.87c-.26-.17-.46-.38-.59-.62-.14-.25-.2-.54-.2-.89v-1.67H.66c.05,.17,.1,.35,.16,.51,.35,.97,.81,1.8,1.4,2.5,.58,.68,1.26,1.21,2.05,1.59,.79,.38,1.6,.56,2.44,.56s1.6-.19,2.36-.56c.77-.37,1.41-.85,1.93-1.43l.12,.03v1.38l.23,.21,5.19-.33v-.99c-.3,0-.63-.03-.99-.06s-.64-.11-.83-.23Z"/><path class="f" d="M32.85,25.54c-.65,.42-1.42,.63-2.31,.63s-1.62-.17-2.26-.5c-.63-.34-1.14-.8-1.53-1.38-.32-.48-.56-1.01-.75-1.61h-3.04c.02,.09,.04,.17,.07,.26,.29,.96,.72,1.8,1.3,2.53s1.32,1.29,2.22,1.71,1.94,.63,3.13,.63c1.35,0,2.55-.35,3.59-1.05s1.87-1.64,2.5-2.83l-1.05-.65c-.6,1.09-1.23,1.84-1.87,2.26Z"/><path class="f" d="M56.96,26.12c-.29-.12-.5-.29-.62-.52s-.18-.51-.18-.86v-2.06h-2.83v2.21c0,.36-.07,.65-.2,.88s-.34,.38-.62,.47c-.18,.06-.38,.1-.59,.12-.22,.02-.44,.04-.67,.06v.99h7.07v-.99c-.3-.02-.54-.05-.73-.1s-.39-.11-.62-.2Z"/><path class="f" d="M66.02,26.12c-.29-.12-.5-.29-.62-.52s-.18-.51-.18-.86v-2.06h-2.83v2.21c0,.36-.07,.65-.2,.88s-.34,.38-.62,.47c-.18,.06-.39,.1-.62,.12-.24,.02-.47,.04-.7,.06v.99h7.22v-.99c-.28-.02-.53-.05-.76-.1s-.45-.11-.68-.2Z"/><path class="f" d="M47.91,26.09c-.28-.12-.49-.3-.63-.53-.14-.23-.21-.52-.21-.86v-2.03h-2.8v2.22c0,.36-.07,.65-.2,.88-.14,.23-.34,.38-.62,.47-.18,.06-.39,.1-.64,.12-.25,.02-.48,.04-.71,.06v.99h7.2v-.99c-.27-.02-.52-.05-.74-.11-.22-.05-.44-.13-.65-.23Z"/><path class="f" d="M100.88,26.09c-.28-.12-.49-.29-.63-.51-.14-.22-.21-.5-.21-.84v-2.06h-2.8v2.22c0,.36-.07,.65-.2,.88-.14,.23-.34,.38-.62,.47-.18,.06-.39,.1-.64,.12-.25,.02-.48,.04-.71,.06v.99h7.26v-.99c-.26-.02-.51-.05-.76-.11-.25-.05-.47-.13-.68-.23Z"/><path class="f" d="M110.08,26.12c-.29-.12-.5-.29-.62-.5-.12-.22-.18-.5-.18-.85v-2.09h-2.83v2.21c0,.36-.07,.65-.2,.88s-.34,.38-.62,.47c-.18,.06-.41,.1-.68,.12-.28,.02-.53,.04-.76,.06v.99h7.25v-.99c-.31-.02-.55-.05-.73-.09-.18-.04-.38-.11-.62-.21Z"/><path class="f" d="M164.46,26.02c-.28-.16-.49-.36-.62-.59-.14-.23-.2-.54-.2-.93,0-.63,0-1.24,.01-1.82h-11.19c-.13,.42-.21,.89-.21,1.42,0,1.1,.36,1.99,1.08,2.68s1.63,1.02,2.74,1.02c1.05,0,1.95-.19,2.7-.57s1.45-.93,2.1-1.65h.09c.13,.7,.43,1.24,.89,1.6s1.09,.55,1.87,.55c.45,0,.85-.05,1.21-.16s.77-.24,1.24-.41v-.96c-.34,0-.67,0-1-.02-.33,0-.56-.06-.71-.15Z"/><path class="f" d="M187.29,26.12c-.29-.12-.5-.29-.62-.5-.12-.22-.18-.5-.18-.85v-2.09h-2.83v2.21c0,.36-.07,.65-.2,.88s-.34,.38-.62,.47c-.18,.06-.41,.1-.68,.12-.28,.02-.53,.04-.76,.06v.99h7.25v-.99c-.31-.02-.55-.05-.73-.09-.18-.04-.38-.11-.62-.21Z"/><path class="f" d="M178.09,26.09c-.28-.12-.49-.29-.63-.51-.14-.22-.21-.5-.21-.84v-2.06h-2.8v2.22c0,.36-.07,.65-.2,.88-.14,.23-.34,.38-.62,.47-.18,.06-.39,.1-.64,.12-.25,.02-.48,.04-.71,.06v.99h7.26v-.99c-.26-.02-.51-.05-.76-.11-.25-.05-.47-.13-.68-.23Z"/><path class="f" d="M209.5,25.87c-.26-.17-.46-.38-.59-.62-.14-.25-.2-.54-.2-.89v-1.67h-13.26c.05,.17,.1,.35,.16,.51,.35,.97,.81,1.8,1.4,2.5,.58,.68,1.26,1.21,2.05,1.59,.79,.38,1.6,.56,2.44,.56s1.6-.19,2.36-.56c.77-.37,1.41-.85,1.93-1.43l.12,.03v1.38l.23,.21,5.19-.33v-.99c-.3,0-.63-.03-.99-.06s-.64-.11-.83-.23Z"/><path class="f" d="M230.42,26.17c-.33,0-.56-.06-.71-.15-.28-.16-.49-.36-.62-.59-.14-.23-.2-.54-.2-.93,0-.63,0-1.24,.01-1.82h-11.19c-.13,.42-.21,.89-.21,1.42,0,1.1,.36,1.99,1.08,2.68s1.63,1.02,2.74,1.02c1.05,0,1.95-.19,2.7-.57s1.45-.93,2.1-1.65h.09c.13,.7,.43,1.24,.89,1.6s1.09,.55,1.87,.55c.45,0,.85-.05,1.21-.16s.77-.24,1.24-.41v-.96c-.34,0-.67,0-1-.02Z"/><path class="g" d="M228.97,17.06c0-1-.13-1.82-.4-2.46-.27-.64-.65-1.14-1.17-1.51-.51-.38-1.08-.63-1.71-.74-.63-.12-1.36-.17-2.2-.17-.61,0-1.24,.1-1.88,.29s-1.19,.43-1.64,.71c-.52,.33-.94,.71-1.27,1.13s-.49,.86-.49,1.32,.12,.84,.35,1.2c.24,.36,.6,.53,1.11,.53,.56,0,1-.15,1.32-.44,.32-.29,.47-.61,.47-.96,0-.33-.05-.69-.14-1.08s-.14-.69-.14-.89c.16-.17,.44-.33,.83-.49,.4-.16,.82-.23,1.29-.23,.67,0,1.19,.14,1.56,.41,.37,.28,.65,.6,.85,.97,.18,.33,.3,.68,.35,1.05,.06,.37,.08,.62,.08,.75v1.09h2.83c0-.16,0-.32,0-.49Z"/><path class="d" d="M25.59,18.27h6.86c0-.23-.01-.48-.03-.73h-6.77c-.03,.24-.05,.48-.06,.73Z"/><path class="g" d="M208.72,4.19v13.18h-2.83v-1.68c-.08-.26-.21-.54-.39-.84s-.41-.58-.68-.83c-.29-.25-.63-.46-1.02-.62-.39-.17-.85-.25-1.37-.25-.6,0-1.15,.16-1.66,.47-.51,.31-.95,.76-1.34,1.34-.37,.56-.66,1.28-.88,2.14-.02,.09-.04,.18-.06,.27h-3.06c.06-.21,.13-.42,.21-.62,.37-.96,.88-1.8,1.53-2.53,.61-.67,1.36-1.21,2.24-1.61,.89-.4,1.79-.6,2.71-.6,.69,0,1.37,.09,2.03,.26,.67,.18,1.24,.4,1.72,.67V7.78c0-.42-.07-.81-.21-1.15-.14-.35-.13-.8-.59-.79l3.62-5.83"/></g></g></g></svg>