<?xml version="1.0" encoding="UTF-8"?><svg xmlns="http://www.w3.org/2000/svg" viewBox="0 0 137.61 187.56"><defs><style>.d{fill:#fff;}.e{fill:#1d1814;}.f{fill:#ed2224;}.g{fill:#85c441;}.h{fill:#191919;}</style></defs><g id="a"/><g id="b"><g id="c"><g><path class="e" d="M45.18,89.99c2.04,8.18,4.05,1.77,5.99,.67,1.95-.54,3.85-.4,5.68,1.59,1.83,.46,3.6-5.89,5.29,2.44,1.69,3.45,3.31-2.19,4.85,3.21,1.53-2.88,2.98,2.55,4.33,3.91,.68-2.96,1.33,8.44,1.95,2.19,.63,.64,1.23-3.55,1.8,2.34,.53-5.85,1.1,3.04,1.7-2.96,.6,.91,1.24-2.23,1.91-1.86,1.33,1.47,2.79-2.2,4.36-4.13,1.57,1.37,3.25-.14,5.01-3.34,1.77-9.61,3.63-2.72,5.56-2.45,1.93-.26,3.94,5.92,6.01-1.46,2.06-2.45,4.19,.58,6.35-.38,1.91,3.74,3.78-2.69,5.59,.61,1.82,.8,3.58,.64,5.28,1.45,1.7,1.56,3.34,2.34,4.91,2.21,.32-4.81,.6-6.17,.83-3.9,.23-1.3,.42,6.19,.56-3.99,.14-1.47,.23,.85,.27-4.08,.04-3.8,.03,1.51,0-3.56-.04-1.18-.11-2.35-.22-3.51-.22-2.32-.58-4.6-1.08-6.83-.5-.8-1.12-4.89-1.88-6.54-.75-.95-1.63-2.67-2.63-6.2-.99-1.82-2.11,.95-3.32-5.8-1.22-2.95-2.54-3.98-3.97-5.35-1.43,5.85-2.95-3.86-4.56-4.84-1.61-9.56-3.32-12.14-5.11-4.28-1.79,3.46-3.66,2.22-5.6-3.66-1.94,2.16-3.96,1.79-6.04-2.99-2.08-2.01-4.23-1.72-6.43-2.26-2.2-.63-4.46-1.13-6.77-1.49-2.31-.36-4.66-.58-7.06-.65-2.39-1.8-4.76-1.03-7.08,.23-2.32-1.92-4.61,4.81-6.85,1.07-2.24,3.24-4.43,1.2-6.56,1.87-2.13-.45-4.2,2.25-6.21,2.62-2.01-2.46-3.95,2.1-5.81,3.32s-3.65,2.54-5.36,3.96-3.32,2.94-4.85,4.56c-1.52-.31-2.96,.94-4.28,5.1-1.33-7.44-2.55,14.34-3.67,5.59-1.11,.64-2.11,4.41-2.99,6.03-.88,5.95-1.64,2.55-2.27,6.42-.63,.37-1.13,4.45-1.49,6.76-.36,2.3-.58,4.65-.65,7.04-.07,2.18,0,4.33,.17,6.46,.18,1.3,.47,3.57,.88,6.26,.41,2.49,.93,5.7,1.56,6.03,.63,3.27,1.36,5.57,2.19,5.76,1.48-4.32,3.09,1.99,4.82-4.64,1.72-2.06,3.56,3.54,5.48-3.74,1.93-1.39,3.95,.12,6.05-2.74,2.1-.9,4.27,.75,6.5-1.64,2.23,1.68,4.52,.72,6.85-.43Z"/><path class="h" d="M81.54,127.78c-.64,2.73-1.27,3.84-1.9,.48-.63,2.34-1.26,2-1.88,.08-.62-2.65-1.24-2.87-1.86,.39-.62,1.93-1.23-7.5-1.84,.41-1.22-1.59-2.42,2.65-3.6,1.04-.02,.59-.03,1.62-.03,1.66,0,2.3,.13,5.63,.38,5.84,.25,4.67,.63,.23,1.11,5.59,.49,1.56,1.09,6.28,1.79,5.29,.7,2.06,1.51-2,2.42,4.93,.45-2.99,.93,11.05,1.43,2.3,.5,5,1.02,4.5,1.56,2.21,.5-3.6,.97,17.25,1.4-2.35,.43-5.16,.82-7.95,1.17-3.1,.47,3.9,.87-3.98,1.19-3.89,.32-6.14,.57-6.42,.73-4.07,.17-.49,.25-4.36,.25-4.22,0,.24-.02-4.34-.07-2.2-.05-1.28-.11,5.83-.2-2.16-.09-2.25-.2,2.93-.33-2.12-.13-2.77-.28-2.62-.45-2.08-.17-1.79-.36,.41-.58-1.72-.21-4.48-.44,.99-.69-2.3Z"/><path class="h" d="M115.33,58.97c-.86-2.83-1.73,3.7-2.62,1.87-.88-5.98-1.78,1.91-2.69,1.7-.39-4.35-.86-3.39-1.42-3.96-.56,1.1-1.2-3.49-1.92-3.82-.72-4.98-1.53-7.41-2.43-3.64-1.3-.25-2.72-1.6-4.24-4.66-1.53,4.2-3.15-6.32-4.86-3.73-1.71,4.08-3.5-9.55-5.34-2.78,0,.07,.14-6.64,.42-5.86,.28-6.61,.7-4.9,1.26-5.7,.56-4.16,1.25-5.97,2.08-5.43,.83-.15,1.79,.71,2.89-5.06,1.1-2.27,2.33-3.54,3.7-4.59,1.36-4.75,2.86-4.45,4.49-4.03,1.86-2.32,3.81-.4,5.83-3.63,2.02-3.56,4.11,.38,6.24-2.44,2.13,1.33,4.31,1.44,6.51-1.28,2.2-3.75,4.42-1.06,6.64-.14,2.22-2.18,4.43-.88,6.61,.97,.47,5.16,.79,5.66,.97,6.89,.18,2.27,.21,3.02,.11,6.92-.1-.54-.35,13.03-.73,6.87-.38,5.53-.91,6.44-1.57,6.74-.66,3.46-1.46,4.61-2.39,6.52-.93,6.8-2,.64-3.2,6.22-1.2-.06-2.53,.33-4,5.84-1.46-.54-3.06,2.45-4.78,5.37-1.72,1.65-3.58,1.84-5.56,4.82Z"/><path class="h" d="M62.84,115.14c0,1.23-.12,.02-.34,1.29-.22,2.61-.55,3.02-.97,2.1-.42-3.98-.94-1.7-1.54,.23-.6,5.3-1.28,1.2-2.03,2.53-1.51,2.64-3.3,6.2-5.3,1.87-1.99,.66-4.19,.27-6.49,.68-2.3-.95-4.49,1.13-6.49-.68-1.99,1.55-3.79,3.26-5.3-1.87-1.51,.87-2.73,.45-3.57-2.77-.84-2.79-1.31-6.95-1.31-3.39,0,.76,.12-1.09,.34-2.63,.22-.77,.55-3.29,.97-.76,.42,.05,.94-.59,1.54-2.66,.6-.31,1.28-2.34,2.03-.11,.75,1.78,1.58,1.47,2.47,.64,.89,.27,1.83-3.07,2.83-2.51,1,2.28,2.04,3.11,3.13,2.86s2.21-.61,3.36-3.55c1.15,.44,2.27-.48,3.36,.36,1.08,3.28,2.13-2.48,3.13,.33,1,4.35,1.94,1.36,2.83,2.44,.89,1.56,1.71,3.67,2.47-.57,.75,2.19,1.44,4.9,2.03,2.82,.6,2.57,1.11,1.12,1.54-.05,.42,2,.75,2.24,.97,1.43,.22-2.2,.34,4.59,.34,1.96Z"/><path class="h" d="M121.69,115.14c0-1.88-.47,1.18-1.31,3.39-.84,1.27-2.06-.31-3.57,2.77-1.51-1.41-3.3,3.74-5.3,1.87-1.99,1.34-4.19,5.12-6.49,.68-2.3,2.04-4.49-1.35-6.49-.68-1.99,1.75-3.79-7.14-5.3-1.87-1.51,0-2.73-1.53-3.57-2.77-.42-3.01-.75-3.21-.97-2.98s-.34,.89-.34-.4c0-1.76,.12-.85,.34-.58s.55,.16,.97-2.81c.42,1.72,.94,1.79,1.54,1.43s1.28-8.35,2.03-4.2c.75-6.35,1.58-5.59,2.47-1.02,.89,1.21,1.83-6.72,2.83-.84,1,2.8,2.04,4.04,3.13,3.87s2.21-1.74,3.36-4.55c1.15,1.85,2.27,1.19,3.36-.52,1.08-.72,2.13-7.76,3.13,1.2,1,1.41,1.94-2.22,2.83,1.11,.89,1.58,1.71,1.53,2.47,.76,.75,1.25,1.44,1.56,2.03,.29,.6,.59,1.11,1.29,1.54,2.48,.84-.03,1.31,3.4,1.31,3.39Z"/><path class="h" d="M78.53,165.87c-1.59-2.36-3.15-1.41-4.68-.41-1.53,2.83-3.02,1.53-4.46-1.59-1.44,.11-2.83-4.23-4.16-2.66-1.33,5.01-2.59-2.26-3.78-3.63-.97,2.13-2.03,1.17-3.18,3.61-1.15,.43-2.38,3.49-3.68,3.03-1.3,3.08-2.68-2.65-4.12,2.37,.49,7.5,1.21,1.14,2.14,5.93,.93-2.14,2.07,3.05,3.38,5.19,1.31,3.49,2.8,4.07,4.43,4.27,1.63,1.25,3.41,2.32,5.3,3.17,3.78,1.71,8.01,2.59,12.44,2.38,2.14-.1,4.21-.44,6.19-1,1.98,.19,3.86-6.05,5.62-2.3,1.76-3.15,3.4-1.22,4.89-3.43,1.49-.33,2.84-3.78,4.01-4.39,1.17-1.42,2.17-1.16,2.98-5.19,.8,1.17,1.4,2.13,1.78-5.81,.38-2.1,.53-10.17,.44-6.26-.07,8.03-.29-1.4-.63-4.74-.34-5.54-.81-1.66-1.4-4.43-.59-2.33-1.29-1.31-2.1-4.06-.79,4.43-1.75,6.28-2.84,6.46-1.09,2.55-2.32,3.92-3.68,5.42-1.35,1.42-2.83,6.05-4.4,4.18-1.57,7.63-3.25,2.71-5,2.75-1.76-2.27-3.59,3.3-5.49,1.13Z"/><path class="g" d="M102.48,121.11c0,.32,0,.63,.02,.95,2.79-1.09,5.2-3.3,6.89-6.22-.78-3.05-1.9-5.73-3.26-7.9-2.27,3.5-3.65,8.11-3.65,13.17Z"/><path class="g" d="M43.99,121.09c0,.32,0,.63,.02,.95,2.79-1.09,5.2-3.3,6.89-6.22-.78-3.05-1.9-5.73-3.26-7.9-2.27,3.5-3.65,8.11-3.65,13.17Z"/><path class="h" d="M45.18,89.99c2.04,8.18,4.05,1.77,5.99,.67,1.95-.54,3.85-.4,5.68,1.59,1.83,.46,3.6-5.89,5.29,2.44,1.69,3.45,3.31-2.19,4.85,3.21,1.53-2.88,2.98,2.55,4.33,3.91,.68-2.96,1.33,8.44,1.95,2.19,.63,.64,1.23-3.55,1.8,2.34,.53-5.85,1.1,3.04,1.7-2.96,.6,.91,1.24-2.23,1.91-1.86,1.33,1.47,2.79-2.2,4.36-4.13,1.57,1.37,3.25-.14,5.01-3.34,1.77-9.61,3.63-2.72,5.56-2.45,1.93-.26,3.94,5.92,6.01-1.46,2.06-2.45,4.19,.58,6.35-.38,1.91,3.74,3.78-2.69,5.59,.61,1.82,.8,3.58,.64,5.28,1.45,1.7,1.56,3.34,2.34,4.91,2.21,.32-4.81,.6-6.17,.83-3.9,.23-1.3,.42,6.19,.56-3.99,.14-1.47,.23,.85,.27-4.08,.04-3.8,.03,1.51,0-3.56-.04-1.18-.11-2.35-.22-3.51-.22-2.32-.58-4.6-1.08-6.83-.5-.8-1.12-4.89-1.88-6.54-.75-.95-1.63-2.67-2.63-6.2-.99-1.82-2.11,.95-3.32-5.8-1.22-2.95-2.54-3.98-3.97-5.35-1.43,5.85-2.95-3.86-4.56-4.84-1.61-9.56-3.32-12.14-5.11-4.28-1.79,3.46-3.66,2.22-5.6-3.66-1.94,2.16-3.96,1.79-6.04-2.99-2.08-2.01-4.23-1.72-6.43-2.26-2.2-.63-4.46-1.13-6.77-1.49-2.31-.36-4.66-.58-7.06-.65-2.39-1.8-4.76-1.03-7.08,.23-2.32-1.92-4.61,4.81-6.85,1.07-2.24,3.24-4.43,1.2-6.56,1.87-2.13-.45-4.2,2.25-6.21,2.62-2.01-2.46-3.95,2.1-5.81,3.32s-3.65,2.54-5.36,3.96-3.32,2.94-4.85,4.56c-1.52-.31-2.96,.94-4.28,5.1-1.33-7.44-2.55,14.34-3.67,5.59-1.11,.64-2.11,4.41-2.99,6.03-.88,5.95-1.64,2.55-2.27,6.42-.63,.37-1.13,4.45-1.49,6.76-.36,2.3-.58,4.65-.65,7.04-.07,2.18,0,4.33,.17,6.46,.18,1.3,.47,3.57,.88,6.26,.41,2.49,.93,5.7,1.56,6.03,.63,3.27,1.36,5.57,2.19,5.76,1.48-4.32,3.09,1.99,4.82-4.64,1.72-2.06,3.56,3.54,5.48-3.74,1.93-1.39,3.95,.12,6.05-2.74,2.1-.9,4.27,.75,6.5-1.64,2.23,1.68,4.52,.72,6.85-.43Z"/><path class="h" d="M22.29,59.86c.86,1.75,1.73-6.05,2.62,1.87,.88-.62,1.78-.08,2.69,1.7,.39-3.11,.86-8.16,1.42-3.96,.56,2.27,1.2-5.56,1.92-3.82,.72-6.04,1.53-5.63,2.43-3.64,1.3-1.19,2.72-2.71,4.24-4.66,1.53-1.4,3.15-2.64,4.86-3.73,1.71-.23,3.5-.29,5.34-2.78,0,.3-.14-5.77-.42-5.86-.28,.34-.7,.66-1.26-5.7-.56,2.65-1.25-7.12-2.08-5.43-.83-1.54-1.79,2.66-2.89-5.06-1.1,3.5-2.33-6.33-3.7-4.59-1.36-1.76-2.86-3.45-4.49-4.03-1.86-1.98-3.81-4.34-5.83-3.63-2.02-3.17-4.11-2.4-6.24-2.44-2.13,1.02-4.31-.23-6.51-1.28-2.2-.85-4.42,.15-6.64-.14C5.53-1.33,3.32,4.27,1.13,3.66c-.47,1.63-.79,13.58-.97,6.89C-.01,15.57-.05,19.9,.06,17.48c.1-3.07,.35-.29,.73,6.87,.38,6.02,.91,7.18,1.57,6.74,.66,7.7,1.46,2.69,2.39,6.52,.93,3.95,2,2.65,3.2,6.22,1.2,2.2,2.53,1.13,4,5.84,1.46,1.08,3.06,9.5,4.78,5.37,1.72-1.57,3.58-.97,5.56,4.82Z"/><path class="h" d="M81.54,127.78c-.64,2.73-1.27,3.84-1.9,.48-.63,2.34-1.26,2-1.88,.08-.62-2.65-1.24-2.87-1.86,.39-.62,1.93-1.23-7.5-1.84,.41-1.22-1.59-2.42,2.65-3.6,1.04-.02,.59-.03,1.62-.03,1.66,0,2.3,.13,5.63,.38,5.84,.25,4.67,.63,.23,1.11,5.59,.49,1.56,1.09,6.28,1.79,5.29,.7,2.06,1.51-2,2.42,4.93,.45-2.99,.93,11.05,1.43,2.3,.5,5,1.02,4.5,1.56,2.21,.5-3.6,.97,17.25,1.4-2.35,.43-5.16,.82-7.95,1.17-3.1,.47,3.9,.87-3.98,1.19-3.89,.32-6.14,.57-6.42,.73-4.07,.17-.49,.25-4.36,.25-4.22,0,.24-.02-4.34-.07-2.2-.05-1.28-.11,5.83-.2-2.16-.09-2.25-.2,2.93-.33-2.12-.13-2.77-.28-2.62-.45-2.08-.17-1.79-.36,.41-.58-1.72-.21-4.48-.44,.99-.69-2.3Z"/><path class="h" d="M115.33,58.97c-.86-2.83-1.73,3.7-2.62,1.87-.88-5.98-1.78,1.91-2.69,1.7-.39-4.35-.86-3.39-1.42-3.96-.56,1.1-1.2-3.49-1.92-3.82-.72-4.98-1.53-7.41-2.43-3.64-1.3-.25-2.72-1.6-4.24-4.66-1.53,4.2-3.15-6.32-4.86-3.73-1.71,4.08-3.5-9.55-5.34-2.78,0,.07,.14-6.64,.42-5.86,.28-6.61,.7-4.9,1.26-5.7,.56-4.16,1.25-5.97,2.08-5.43,.83-.15,1.79,.71,2.89-5.06,1.1-2.27,2.33-3.54,3.7-4.59,1.36-4.75,2.86-4.45,4.49-4.03,1.86-2.32,3.81-.4,5.83-3.63,2.02-3.56,4.11,.38,6.24-2.44,2.13,1.33,4.31,1.44,6.51-1.28,2.2-3.75,4.42-1.06,6.64-.14,2.22-2.18,4.43-.88,6.61,.97,.47,5.16,.79,5.66,.97,6.89,.18,2.27,.21,3.02,.11,6.92-.1-.54-.35,13.03-.73,6.87-.38,5.53-.91,6.44-1.57,6.74-.66,3.46-1.46,4.61-2.39,6.52-.93,6.8-2,.64-3.2,6.22-1.2-.06-2.53,.33-4,5.84-1.46-.54-3.06,2.45-4.78,5.37-1.72,1.65-3.58,1.84-5.56,4.82Z"/><path class="h" d="M62.84,115.14c0,1.23-.12,.02-.34,1.29-.22,2.61-.55,3.02-.97,2.1-.42-3.98-.94-1.7-1.54,.23-.6,5.3-1.28,1.2-2.03,2.53-1.51,2.64-3.3,6.2-5.3,1.87-1.99,.66-4.19,.27-6.49,.68-2.3-.95-4.49,1.13-6.49-.68-1.99,1.55-3.79,3.26-5.3-1.87-1.51,.87-2.73,.45-3.57-2.77-.84-2.79-1.31-6.95-1.31-3.39,0,.76,.12-1.09,.34-2.63,.22-.77,.55-3.29,.97-.76,.42,.05,.94-.59,1.54-2.66,.6-.31,1.28-2.34,2.03-.11,.75,1.78,1.58,1.47,2.47,.64,.89,.27,1.83-3.07,2.83-2.51,1,2.28,2.04,3.11,3.13,2.86s2.21-.61,3.36-3.55c1.15,.44,2.27-.48,3.36,.36,1.08,3.28,2.13-2.48,3.13,.33,1,4.35,1.94,1.36,2.83,2.44,.89,1.56,1.71,3.67,2.47-.57,.75,2.19,1.44,4.9,2.03,2.82,.6,2.57,1.11,1.12,1.54-.05,.42,2,.75,2.24,.97,1.43,.22-2.2,.34,4.59,.34,1.96Z"/><path class="h" d="M121.69,115.14c0-1.88-.47,1.18-1.31,3.39-.84,1.27-2.06-.31-3.57,2.77-1.51-1.41-3.3,3.74-5.3,1.87-1.99,1.34-4.19,5.12-6.49,.68-2.3,2.04-4.49-1.35-6.49-.68-1.99,1.75-3.79-7.14-5.3-1.87-1.51,0-2.73-1.53-3.57-2.77-.42-3.01-.75-3.21-.97-2.98s-.34,.89-.34-.4c0-1.76,.12-.85,.34-.58s.55,.16,.97-2.81c.42,1.72,.94,1.79,1.54,1.43s1.28-8.35,2.03-4.2c.75-6.35,1.58-5.59,2.47-1.02,.89,1.21,1.83-6.72,2.83-.84,1,2.8,2.04,4.04,3.13,3.87s2.21-1.74,3.36-4.55c1.15,1.85,2.27,1.19,3.36-.52,1.08-.72,2.13-7.76,3.13,1.2,1,1.41,1.94-2.22,2.83,1.11,.89,1.58,1.71,1.53,2.47,.76,.75,1.25,1.44,1.56,2.03,.29,.6,.59,1.11,1.29,1.54,2.48,.84-.03,1.31,3.4,1.31,3.39Z"/><path class="h" d="M78.53,165.87c-1.59-2.36-3.15-1.41-4.68-.41-1.53,2.83-3.02,1.53-4.46-1.59-1.44,.11-2.83-4.23-4.16-2.66-1.33,5.01-2.59-2.26-3.78-3.63-.97,2.13-2.03,1.17-3.18,3.61-1.15,.43-2.38,3.49-3.68,3.03-1.3,3.08-2.68-2.65-4.12,2.37,.49,7.5,1.21,1.14,2.14,5.93,.93-2.14,2.07,3.05,3.38,5.19,1.31,3.49,2.8,4.07,4.43,4.27,1.63,1.25,3.41,2.32,5.3,3.17,3.78,1.71,8.01,2.59,12.44,2.38,2.14-.1,4.21-.44,6.19-1,1.98,.19,3.86-6.05,5.62-2.3,1.76-3.15,3.4-1.22,4.89-3.43,1.49-.33,2.84-3.78,4.01-4.39,1.17-1.42,2.17-1.16,2.98-5.19,.8,1.17,1.4,2.13,1.78-5.81,.38-2.1,.53-10.17,.44-6.26-.07,8.03-.29-1.4-.63-4.74-.34-5.54-.81-1.66-1.4-4.43-.59-2.33-1.29-1.31-2.1-4.06-.79,4.43-1.75,6.28-2.84,6.46-1.09,2.55-2.32,3.92-3.68,5.42-1.35,1.42-2.83,6.05-4.4,4.18-1.57,7.63-3.25,2.71-5,2.75-1.76-2.27-3.59,3.3-5.49,1.13Z"/><g><path class="f" d="M40.6,112.39c-.18-.05-.36-.1-.54-.14,.24,2.5,1.31,4.95,3.03,7.1-.03-.05-.05-.09-.08-.14-1.42-2.14-2.27-4.48-2.41-6.82Z"/><path class="f" d="M44.01,120.41c.05,.06,.1,.11,.15,.17,.5,.01,.99,.01,1.48,0-.05,0-.1-.02-.14-.03-.49-.04-.99-.08-1.49-.14Z"/><path class="f" d="M52.06,119.76c.2-.05,.39-.1,.59-.16-1.39-1.59-3.12-3.04-5.12-4.26,.03,.03,.06,.06,.09,.09,1.74,1.29,3.24,2.76,4.44,4.33Z"/><path class="f" d="M41.27,112.58c0-.2,0-.4,.02-.6-.24-.09-.47-.18-.71-.26,0,.22,0,.45,.02,.67,.12,.03,.25,.06,.37,.1,.1,.03,.2,.06,.3,.09Z"/><path class="f" d="M51.63,120.36c.27-.04,.53-.08,.79-.13-.11-.16-.23-.32-.35-.47-.23,.06-.47,.12-.71,.17,.09,.14,.18,.29,.27,.43Z"/><path class="f" d="M44.01,120.41c-.07-.08-.15-.16-.22-.24-.03,0-.07-.02-.1-.02,.06,.08,.12,.16,.19,.25,.04,0,.09,0,.13,.01Z"/><path class="f" d="M45.64,120.58c2.27,.42,4.42,.58,6.37,.46-.12-.23-.25-.45-.39-.68-1.77,.27-3.72,.34-5.78,.21-.07,0-.13,0-.2,0Z"/><path class="f" d="M43.09,119.35c.14,.26,.28,.51,.43,.76,.06,.01,.11,.03,.17,.04-.16-.21-.32-.42-.46-.63-.05-.06-.09-.11-.14-.17Z"/><path class="f" d="M47.38,115.25s.1,.06,.15,.09c-1.54-1.43-3.32-2.73-5.32-3.82-.28-.15-.56-.3-.84-.44-.04,.3-.06,.6-.08,.9,.06,.02,.12,.04,.18,.07,2.18,.85,4.16,1.94,5.91,3.21Z"/><path class="f" d="M45.84,120.57c1.98-.05,3.83-.26,5.52-.64-.99-1.58-2.25-3.1-3.74-4.5-.08-.06-.16-.12-.24-.18-1.83-1.1-3.88-2.01-6.11-2.67,0,2.21,.61,4.48,1.74,6.63,.07,.1,.14,.21,.21,.31,.18,.22,.37,.44,.56,.65,.58,.14,1.15,.27,1.71,.37,.12,0,.23,.02,.34,.02Z"/></g><g><path class="f" d="M110.51,111.46c.18-.05,.36-.1,.54-.14-.24,2.5-1.31,4.95-3.03,7.1,.03-.05,.05-.09,.08-.14,1.42-2.14,2.27-4.48,2.41-6.82Z"/><path class="f" d="M107.1,119.48c-.05,.06-.1,.11-.15,.17-.5,.01-.99,.01-1.48,0,.05,0,.1-.02,.14-.03,.49-.04,.99-.08,1.49-.14Z"/><path class="f" d="M99.05,118.83c-.2-.05-.39-.1-.59-.16,1.39-1.59,3.12-3.04,5.12-4.26-.03,.03-.06,.06-.09,.09-1.74,1.29-3.24,2.76-4.44,4.33Z"/><path class="f" d="M109.84,111.65c0-.2,0-.4-.02-.6,.24-.09,.47-.18,.71-.26,0,.22,0,.45-.02,.67-.12,.03-.25,.06-.37,.1-.1,.03-.2,.06-.3,.09Z"/><path class="f" d="M99.49,119.43c-.27-.04-.53-.08-.79-.13,.11-.16,.23-.32,.35-.47,.23,.06,.47,.12,.71,.17-.09,.14-.18,.29-.27,.43Z"/><path class="f" d="M107.1,119.48c.07-.08,.15-.16,.22-.24,.03,0,.07-.02,.1-.02-.06,.08-.12,.16-.19,.25-.04,0-.09,0-.13,.01Z"/><path class="f" d="M105.47,119.65c-2.27,.42-4.42,.58-6.37,.46,.12-.23,.25-.45,.39-.68,1.77,.27,3.72,.34,5.78,.21,.07,0,.13,0,.2,0Z"/><path class="f" d="M108.02,118.42c-.14,.26-.28,.51-.43,.76-.06,.01-.11,.03-.17,.04,.16-.21,.32-.42,.46-.63,.05-.06,.09-.11,.14-.17Z"/><path class="f" d="M103.73,114.32s-.1,.06-.15,.09c1.54-1.43,3.32-2.73,5.32-3.82,.28-.15,.56-.3,.84-.44,.04,.3,.06,.6,.08,.9-.06,.02-.12,.04-.18,.07-2.18,.85-4.16,1.94-5.91,3.21Z"/><path class="f" d="M105.27,119.64c-1.98-.05-3.83-.26-5.52-.64,.99-1.58,2.25-3.1,3.74-4.5,.08-.06,.16-.12,.24-.18,1.83-1.1,3.88-2.01,6.11-2.67,0,2.21-.61,4.48-1.74,6.63-.07,.1-.14,.21-.21,.31-.18,.22-.37,.44-.56,.65-.58,.14-1.15,.27-1.71,.37-.12,0-.23,.02-.34,.02Z"/></g><path class="d" d="M19.6,38.83s1.1-.71,2.72-1.32c1.68-1.52,3.88-2.94,7.13-2.42,1.15-3.36,3.35-4.78,5.9-5.39,.75-1.52,1.85-2.23,1.91-2.22-.05-.01-1.07-.61-1.02-1.2-1.65-.65-3.04-1.31-3.11-1.94-.9-1.08-.48-2.15,1.67-3.6-2.39-.01-4.2-.08-1.99,.95-5.33-1.5-6.64-1.89-1.23-.12-7.76-3-8.82-3.83-5.44-9.97-5.51,3.93-6.57,2.55-10.37-4.78,2.56,7.62,1.98,8.29-4.62,4.46,4.89,3.77,3.76,3.04-1.16-.03,2.8,1.98,1.79,1.39-.59,.07"/><path class="d" d="M120.08,40.28s-1.1-.71-2.72-1.32c-1.68-1.52-3.88-2.94-7.13-2.42-1.15-3.36-3.35-4.78-5.9-5.39-.75-1.52-1.85-2.23-1.91-2.22,.05-.01,1.07-.61,1.02-1.2,1.65-.65,3.04-1.31,3.11-1.94,.9-1.08,.48-2.15-1.67-3.6,2.39-.01,4.2-.08,1.99,.95,5.33-1.5,6.64-1.89,1.23-.12,7.76-3,8.82-3.83,5.44-9.97,5.51,3.93,6.57,2.55,10.37-4.78-2.56,7.62-1.98,8.29,4.62,4.46-4.89,3.77-3.76,3.04,1.16-.03-2.8,1.98-1.79,1.39,.59,.07"/></g></g></g></svg>